<svg xmlns="http://www.w3.org/2000/svg" viewBox="0 0 90 73.91"><title>Asset 2</title><g id="Layer_2" data-name="Layer 2"><g id="Layer_1-2" data-name="Layer 1"><path d="M74.61,12.31l.83-10.38a1.78,1.78,0,0,0-1-1.76,1.8,1.8,0,0,0-2,.34l-19,18.67,2.53,2.53L68.56,34.36l2.54,2.53,3-3,4.33,4.33a1.79,1.79,0,0,0,2.53,0l8.52-8.51a1.79,1.79,0,0,0,0-2.53Z"/><path d="M7.8,27.3V71.22A1.8,1.8,0,0,0,9.59,73h9.86a1.8,1.8,0,0,0,1.79-1.8V56h34V72.12a1.8,1.8,0,0,0,1.8,1.79h10.3a1.79,1.79,0,0,0,1.79-1.79v-30L65.59,38.5,52.33,25.24l-2.54-2.53-2,1.93H12.26L4.05,16.43a1.66,1.66,0,0,0-2.35,0L.49,17.64A1.66,1.66,0,0,0,.49,20Z"/></g></g></svg>